HIERARCHY
ROOT Hips
{
  OFFSET 0.000000 95.000000 0.000000
  CHANNELS 6 Xposition Yposition Zposition Zrotation Xrotation Yrotation
  JOINT Spine
  {
    OFFSET 0.000000 10.000000 0.000000
    CHANNELS 3 Zrotation Xrotation Yrotation
    JOINT Spine1
    {
      OFFSET 0.000000 12.000000 0.000000
      CHANNELS 3 Zrotation Xrotation Yrotation
      JOINT Spine2
      {
        OFFSET 0.000000 12.000000 0.000000
        CHANNELS 3 Zrotation Xrotation Yrotation
        JOINT Neck
        {
          OFFSET 0.000000 10.000000 0.000000
          CHANNELS 3 Zrotation Xrotation Yrotation
          JOINT Head
          {
            OFFSET 0.000000 8.000000 0.000000
            CHANNELS 3 Zrotation Xrotation Yrotation
            End Site
            {
              OFFSET 0.000000 10.000000 0.000000
            }
          }
        }
        JOINT LeftShoulder
        {
          OFFSET 6.000000 8.000000 0.000000
          CHANNELS 3 Zrotation Xrotation Yrotation
          JOINT LeftArm
          {
            OFFSET 12.000000 0.000000 0.000000
            CHANNELS 3 Zrotation Xrotation Yrotation
            JOINT LeftForeArm
            {
              OFFSET 24.000000 0.000000 0.000000
              CHANNELS 3 Zrotation Xrotation Yrotation
              JOINT LeftHand
              {
                OFFSET 22.000000 0.000000 0.000000
                CHANNELS 3 Zrotation Xrotation Yrotation
                JOINT LeftHandThumb1
                {
                  OFFSET 1.800000 -1.400000 0.500000
                  CHANNELS 3 Zrotation Xrotation Yrotation
                  JOINT LeftHandThumb2
                  {
                    OFFSET 2.400000 0.000000 0.000000
                    CHANNELS 3 Zrotation Xrotation Yrotation
                    JOINT LeftHandThumb3
                    {
                      OFFSET 1.900000 0.000000 0.000000
                      CHANNELS 3 Zrotation Xrotation Yrotation
                      End Site
                      {
                        OFFSET 1.600000 0.000000 0.000000
                      }
                    }
                  }
                }
                JOINT LeftHandIndex1
                {
                  OFFSET 6.600000 1.200000 0.300000
                  CHANNELS 3 Zrotation Xrotation Yrotation
                  JOINT LeftHandIndex2
                  {
                    OFFSET 2.000000 0.000000 0.000000
                    CHANNELS 3 Zrotation Xrotation Yrotation
                    JOINT LeftHandIndex3
                    {
                      OFFSET 1.200000 0.000000 0.000000
                      CHANNELS 3 Zrotation Xrotation Yrotation
                      End Site
                      {
                        OFFSET 1.000000 0.000000 0.000000
                      }
                    }
                  }
                }
                JOINT LeftHandMiddle1
                {
                  OFFSET 7.200000 0.000000 0.300000
                  CHANNELS 3 Zrotation Xrotation Yrotation
                  JOINT LeftHandMiddle2
                  {
                    OFFSET 3.000000 0.000000 0.000000
                    CHANNELS 3 Zrotation Xrotation Yrotation
                    JOINT LeftHandMiddle3
                    {
                      OFFSET 2.000000 0.000000 0.000000
                      CHANNELS 3 Zrotation Xrotation Yrotation
                      End Site
                      {
                        OFFSET 1.600000 0.000000 0.000000
                      }
                    }
                  }
                }
                JOINT LeftHandRing1
                {
                  OFFSET 7.100000 -1.000000 0.400000
                  CHANNELS 3 Zrotation Xrotation Yrotation
                  JOINT LeftHandRing2
                  {
                    OFFSET 2.600000 0.000000 0.000000
                    CHANNELS 3 Zrotation Xrotation Yrotation
                    JOINT LeftHandRing3
                    {
                      OFFSET 1.600000 0.000000 0.000000
                      CHANNELS 3 Zrotation Xrotation Yrotation
                      End Site
                      {
                        OFFSET 1.300000 0.000000 0.000000
                      }
                    }
                  }
                }
                JOINT LeftHandPinky1
                {
                  OFFSET 6.500000 -2.000000 0.500000
                  CHANNELS 3 Zrotation Xrotation Yrotation
                  JOINT LeftHandPinky2
                  {
                    OFFSET 1.900000 0.000000 0.000000
                    CHANNELS 3 Zrotation Xrotation Yrotation
                    JOINT LeftHandPinky3
                    {
                      OFFSET 1.400000 0.000000 0.000000
                      CHANNELS 3 Zrotation Xrotation Yrotation
                      End Site
                      {
                        OFFSET 1.300000 0.000000 0.000000
                      }
                    }
                  }
                }
              }
            }
          }
        }
        JOINT RightShoulder
        {
          OFFSET -6.000000 8.000000 0.000000
          CHANNELS 3 Zrotation Xrotation Yrotation
          JOINT RightArm
          {
            OFFSET -12.000000 0.000000 0.000000
            CHANNELS 3 Zrotation Xrotation Yrotation
            JOINT RightForeArm
            {
              OFFSET -24.000000 0.000000 0.000000
              CHANNELS 3 Zrotation Xrotation Yrotation
              JOINT RightHand
              {
                OFFSET -22.000000 0.000000 0.000000
                CHANNELS 3 Zrotation Xrotation Yrotation
                JOINT RightHandThumb1
                {
                  OFFSET -1.800000 -1.400000 0.500000
                  CHANNELS 3 Zrotation Xrotation Yrotation
                  JOINT RightHandThumb2
                  {
                    OFFSET -2.400000 0.000000 0.000000
                    CHANNELS 3 Zrotation Xrotation Yrotation
                    JOINT RightHandThumb3
                    {
                      OFFSET -1.900000 0.000000 0.000000
                      CHANNELS 3 Zrotation Xrotation Yrotation
                      End Site
                      {
                        OFFSET -1.600000 0.000000 0.000000
                      }
                    }
                  }
                }
                JOINT RightHandIndex1
                {
                  OFFSET -6.600000 1.200000 0.300000
                  CHANNELS 3 Zrotation Xrotation Yrotation
                  JOINT RightHandIndex2
                  {
                    OFFSET -2.000000 0.000000 0.000000
                    CHANNELS 3 Zrotation Xrotation Yrotation
                    JOINT RightHandIndex3
                    {
                      OFFSET -1.200000 0.000000 0.000000
                      CHANNELS 3 Zrotation Xrotation Yrotation
                      End Site
                      {
                        OFFSET -1.000000 0.000000 0.000000
                      }
                    }
                  }
                }
                JOINT RightHandMiddle1
                {
                  OFFSET -7.200000 0.000000 0.300000
                  CHANNELS 3 Zrotation Xrotation Yrotation
                  JOINT RightHandMiddle2
                  {
                    OFFSET -3.000000 0.000000 0.000000
                    CHANNELS 3 Zrotation Xrotation Yrotation
                    JOINT RightHandMiddle3
                    {
                      OFFSET -2.000000 0.000000 0.000000
                      CHANNELS 3 Zrotation Xrotation Yrotation
                      End Site
                      {
                        OFFSET -1.600000 0.000000 0.000000
                      }
                    }
                  }
                }
                JOINT RightHandRing1
                {
                  OFFSET -7.100000 -1.000000 0.400000
                  CHANNELS 3 Zrotation Xrotation Yrotation
                  JOINT RightHandRing2
                  {
                    OFFSET -2.600000 0.000000 0.000000
                    CHANNELS 3 Zrotation Xrotation Yrotation
                    JOINT RightHandRing3
                    {
                      OFFSET -1.600000 0.000000 0.000000
                      CHANNELS 3 Zrotation Xrotation Yrotation
                      End Site
                      {
                        OFFSET -1.300000 0.000000 0.000000
                      }
                    }
                  }
                }
                JOINT RightHandPinky1
                {
                  OFFSET -6.500000 -2.000000 0.500000
                  CHANNELS 3 Zrotation Xrotation Yrotation
                  JOINT RightHandPinky2
                  {
                    OFFSET -1.900000 0.000000 0.000000
                    CHANNELS 3 Zrotation Xrotation Yrotation
                    JOINT RightHandPinky3
                    {
                      OFFSET -1.400000 0.000000 0.000000
                      CHANNELS 3 Zrotation Xrotation Yrotation
                      End Site
                      {
                        OFFSET -1.300000 0.000000 0.000000
                      }
                    }
                  }
                }
              }
            }
          }
        }
      }
    }
  }
  JOINT LeftUpLeg
  {
    OFFSET 10.000000 -5.000000 0.000000
    CHANNELS 3 Zrotation Xrotation Yrotation
    JOINT LeftLeg
    {
      OFFSET 0.000000 -42.000000 0.000000
      CHANNELS 3 Zrotation Xrotation Yrotation
      JOINT LeftFoot
      {
        OFFSET 0.000000 -42.000000 4.000000
        CHANNELS 3 Zrotation Xrotation Yrotation
        End Site
        {
          OFFSET 0.000000 0.000000 12.000000
        }
      }
    }
  }
  JOINT RightUpLeg
  {
    OFFSET -10.000000 -5.000000 0.000000
    CHANNELS 3 Zrotation Xrotation Yrotation
    JOINT RightLeg
    {
      OFFSET 0.000000 -42.000000 0.000000
      CHANNELS 3 Zrotation Xrotation Yrotation
      JOINT RightFoot
      {
        OFFSET 0.000000 -42.000000 4.000000
        CHANNELS 3 Zrotation Xrotation Yrotation
        End Site
        {
          OFFSET 0.000000 0.000000 12.000000
        }
      }
    }
  }
}
MOTION
Frames: 4
Frame Time: 0.033333
0.0000 95.0000 0.0000 0.0000 0.0000 0.0000 0.0000 0.0000 0.0000 0.0000 0.0000 0.0000 0.0000 0.0000 0.0000 0.0000 0.0000 0.0000 0.0000 0.0000 0.0000 0.0000 0.0000 0.0000 -39.8270 -16.0053 -42.4210 -49.6896 53.5389 -153.8826 19.3990 -33.0542 351.7510 75.4238 -15.3748 4.7816 28.2788 0.0000 0.0000 3.1540 0.0000 0.0000 -91.8008 27.8002 32.0013 60.4535 0.0000 0.0000 7.7694 0.0000 0.0000 -129.7253 10.1021 -0.0221 54.6524 0.0000 0.0000 13.4784 0.0000 0.0000 -115.9657 38.7472 11.8297 64.6609 0.0000 0.0000 10.2861 0.0000 0.0000 -118.0925 43.3031 363.7160 68.5796 0.0000 0.0000 7.2686 0.0000 0.0000 0.0000 0.0000 0.0000 18.7174 -8.3243 47.6479 14.0114 -0.2722 71.8153 2.3119 23.6962 29.9916 -103.3813 -17.1553 11.2674 8.3065 0.0000 0.0000 4.8232 0.0000 0.0000 -7.0011 0.1301 1.8411 110.0000 0.0000 0.0000 15.2227 0.0000 0.0000 -25.8683 0.1522 5.4346 110.0000 0.0000 0.0000 19.2615 0.0000 0.0000 -40.6764 -0.8136 6.6679 110.0000 0.0000 0.0000 19.6006 0.0000 0.0000 -51.2130 -2.3087 9.0792 110.0000 0.0000 0.0000 23.2546 0.0000 0.0000 0.0000 0.0000 0.0000 0.0000 0.0000 0.0000 0.0000 0.0000 0.0000 0.0000 0.0000 0.0000 0.0000 0.0000 0.0000 0.0000 0.0000 0.0000
0.0000 95.0000 0.0000 0.0000 0.0000 0.0000 0.0000 0.0000 0.0000 0.0000 0.0000 0.0000 0.0000 0.0000 0.0000 0.0000 0.0000 0.0000 0.0000 0.0000 0.0000 0.0000 0.0000 0.0000 -38.1538 -15.3248 -42.5147 -126.9906 64.5239 -245.9538 80.3956 -76.8985 311.4032 61.2620 -11.9616 8.3780 14.5189 0.0000 0.0000 16.4357 0.0000 0.0000 -133.9369 5.1856 -2.2293 47.5658 0.0000 0.0000 7.2396 0.0000 0.0000 -22.1738 -50.5920 -139.7321 32.5415 0.0000 0.0000 17.4543 0.0000 0.0000 -168.2742 -4.0542 -6.2064 21.1407 0.0000 0.0000 14.3980 0.0000 0.0000 -179.9303 80.5149 322.7646 36.1509 0.0000 0.0000 5.2899 0.0000 0.0000 0.0000 0.0000 0.0000 19.3358 -8.2193 45.7363 23.3060 -13.8719 65.0596 61.8282 41.2597 48.5214 -108.9048 -17.6947 10.9380 11.8262 0.0000 0.0000 30.1117 0.0000 0.0000 -44.9959 1.0845 5.3024 110.0000 0.0000 0.0000 36.5647 0.0000 0.0000 -65.1233 3.2766 9.9009 99.9926 0.0000 0.0000 49.1691 0.0000 0.0000 -79.1300 4.8114 15.5812 91.0145 0.0000 0.0000 54.1207 0.0000 0.0000 -85.4965 2.4354 18.1810 88.3152 0.0000 0.0000 46.9272 0.0000 0.0000 0.0000 0.0000 0.0000 0.0000 0.0000 0.0000 0.0000 0.0000 0.0000 0.0000 0.0000 0.0000 0.0000 0.0000 0.0000 0.0000 0.0000 0.0000
0.0000 95.0000 0.0000 0.0000 0.0000 0.0000 0.0000 0.0000 0.0000 0.0000 0.0000 0.0000 0.0000 0.0000 0.0000 0.0000 0.0000 0.0000 0.0000 0.0000 0.0000 0.0000 0.0000 0.0000 -37.0952 -15.3356 -43.7280 -96.4651 67.3575 -211.8589 18.5301 -66.1340 343.0328 77.4176 -15.7051 2.3518 35.2622 0.0000 0.0000 11.1722 0.0000 0.0000 -92.2932 20.8479 22.3646 70.2340 0.0000 0.0000 13.5968 0.0000 0.0000 -124.2228 1.5633 -3.9445 63.7717 0.0000 0.0000 13.7754 0.0000 0.0000 -84.6766 51.6236 37.8724 70.9995 0.0000 0.0000 9.9905 0.0000 0.0000 -357.7942 19.2578 419.4500 110.0000 0.0000 0.0000 5.7659 0.0000 0.0000 0.0000 0.0000 0.0000 18.8739 -8.3008 47.1705 21.9784 -13.0712 67.6041 12.4231 38.7815 32.3290 -108.8565 -17.3168 12.1465 12.2502 0.0000 0.0000 5.5746 0.0000 0.0000 -42.7020 -0.9064 2.0835 106.8208 0.0000 0.0000 37.0864 0.0000 0.0000 -62.9591 1.7526 7.6338 101.9285 0.0000 0.0000 45.9638 0.0000 0.0000 -74.5587 2.4869 12.3372 95.3774 0.0000 0.0000 50.6009 0.0000 0.0000 -80.7136 0.1806 14.1690 87.1640 0.0000 0.0000 50.5516 0.0000 0.0000 0.0000 0.0000 0.0000 0.0000 0.0000 0.0000 0.0000 0.0000 0.0000 0.0000 0.0000 0.0000 0.0000 0.0000 0.0000 0.0000 0.0000 0.0000
0.0000 95.0000 0.0000 0.0000 0.0000 0.0000 0.0000 0.0000 0.0000 0.0000 0.0000 0.0000 0.0000 0.0000 0.0000 0.0000 0.0000 0.0000 0.0000 0.0000 0.0000 0.0000 0.0000 0.0000 -39.4817 -15.8285 -42.3510 -59.4132 58.5465 -167.9472 13.9993 -42.6384 348.0609 71.1098 -14.4581 4.8630 33.2772 0.0000 0.0000 21.8605 0.0000 0.0000 -78.0370 12.9316 16.7338 96.0866 0.0000 0.0000 17.9493 0.0000 0.0000 -120.0850 -12.7298 -12.1291 75.9626 0.0000 0.0000 15.5717 0.0000 0.0000 -147.8254 46.2236 0.7256 48.6558 0.0000 0.0000 14.9995 0.0000 0.0000 -326.1131 2.5966 528.6695 32.6287 0.0000 0.0000 7.6018 0.0000 0.0000 0.0000 0.0000 0.0000 18.4960 -8.0711 46.8530 13.9779 0.2906 76.4217 -25.4240 21.6325 34.4781 -77.5570 -15.8140 -4.4667 4.8287 0.0000 0.0000 5.1699 0.0000 0.0000 22.1535 0.8887 6.9383 110.0000 0.0000 0.0000 11.7970 0.0000 0.0000 3.0660 -0.1885 11.8059 110.0000 0.0000 0.0000 8.7044 0.0000 0.0000 -17.7293 -0.7766 13.6873 110.0000 0.0000 0.0000 14.5763 0.0000 0.0000 -30.8741 -2.5500 11.1257 110.0000 0.0000 0.0000 21.9858 0.0000 0.0000 0.0000 0.0000 0.0000 0.0000 0.0000 0.0000 0.0000 0.0000 0.0000 0.0000 0.0000 0.0000 0.0000 0.0000 0.0000 0.0000 0.0000 0.0000
